<svg width="40" height="40" viewBox="0 0 40 40" fill="none" xmlns="http://www.w3.org/2000/svg">
<path d="M20 3.00001C16.6377 3.00001 13.3509 3.99704 10.5553 5.86502C7.75968 7.73301 5.58075 10.388 4.29406 13.4944C3.00737 16.6007 2.67071 20.0189 3.32666 23.3165C3.98261 26.6142 5.6017 29.6433 7.97919 32.0208C10.3567 34.3983 13.3858 36.0174 16.6835 36.6734C19.9811 37.3293 23.3993 36.9926 26.5056 35.706C29.612 34.4193 32.267 32.2403 34.135 29.4447C36.003 26.6491 37 23.3623 37 20C37.0019 17.767 36.5634 15.5556 35.7097 13.4922C34.856 11.4288 33.6039 9.55405 32.0249 7.97508C30.446 6.39612 28.5712 5.14398 26.5078 4.2903C24.4444 3.43663 22.233 2.99816 20 3.00001ZM20 33C17.4288 33 14.9154 32.2376 12.7776 30.8091C10.6398 29.3807 8.97351 27.3503 7.98957 24.9749C7.00563 22.5994 6.74819 19.9856 7.2498 17.4638C7.75141 14.9421 8.98954 12.6257 10.8076 10.8076C12.6257 8.98953 14.9421 7.75141 17.4638 7.2498C19.9856 6.74819 22.5995 7.00563 24.9749 7.98957C27.3503 8.97351 29.3807 10.6398 30.8091 12.7776C32.2376 14.9154 33 17.4288 33 20C33.0034 21.7082 32.6695 23.4002 32.0174 24.9789C31.3653 26.5577 30.4079 27.9922 29.2 29.2C27.9922 30.4079 26.5577 31.3653 24.9789 32.0174C23.4002 32.6695 21.7082 33.0034 20 33Z" fill="#B45253"/>
<path d="M25.7001 14.8C25.5195 14.6105 25.3023 14.4596 25.0616 14.3565C24.821 14.2534 24.5619 14.2003 24.3001 14.2003C24.0383 14.2003 23.7792 14.2534 23.5386 14.3565C23.2979 14.4596 23.0807 14.6105 22.9001 14.8L20.0001 17.7L17.2001 14.9C16.8275 14.5349 16.3259 14.3315 15.8042 14.3342C15.2826 14.3368 14.783 14.5452 14.4142 14.9141C14.0453 15.2829 13.8369 15.7825 13.8343 16.3041C13.8316 16.8258 14.035 17.3274 14.4001 17.7L17.2001 20.5L14.4001 23.3C14.035 23.6726 13.8316 24.1742 13.8343 24.6958C13.8369 25.2175 14.0453 25.717 14.4142 26.0859C14.783 26.4548 15.2826 26.6632 15.8042 26.6658C16.3259 26.6685 16.8275 26.4651 17.2001 26.1L20.0001 23.3L22.8001 26.1C23.1727 26.4651 23.6743 26.6685 24.1959 26.6658C24.7176 26.6632 25.2171 26.4548 25.586 26.0859C25.9549 25.717 26.1633 25.2175 26.1659 24.6958C26.1686 24.1742 25.9652 23.6726 25.6001 23.3L22.8001 20.5L25.6001 17.7C25.9751 17.316 26.1932 16.8058 26.2117 16.2694C26.2302 15.7329 26.0477 15.2089 25.7001 14.8Z" fill="#B45253"/>
</svg>
