<svg width="40" height="40" viewBox="0 0 40 40" fill="none" xmlns="http://www.w3.org/2000/svg">
<path d="M20 3.00001C16.6377 3.00001 13.3509 3.99704 10.5553 5.86502C7.75968 7.73301 5.58075 10.388 4.29406 13.4944C3.00737 16.6007 2.67071 20.0189 3.32666 23.3165C3.98261 26.6142 5.6017 29.6433 7.97919 32.0208C10.3567 34.3983 13.3858 36.0174 16.6835 36.6734C19.9811 37.3293 23.3993 36.9926 26.5056 35.706C29.612 34.4193 32.267 32.2403 34.135 29.4447C36.003 26.6491 37 23.3623 37 20C37.0019 17.767 36.5634 15.5556 35.7097 13.4922C34.856 11.4288 33.6039 9.55405 32.0249 7.97508C30.446 6.39612 28.5712 5.14398 26.5078 4.2903C24.4444 3.43663 22.233 2.99816 20 3.00001ZM20 33C17.4288 33 14.9154 32.2376 12.7776 30.8091C10.6398 29.3807 8.97351 27.3503 7.98957 24.9749C7.00563 22.5994 6.74819 19.9856 7.2498 17.4638C7.75141 14.9421 8.98954 12.6257 10.8076 10.8076C12.6257 8.98953 14.9421 7.75141 17.4638 7.2498C19.9856 6.74819 22.5995 7.00563 24.9749 7.98957C27.3503 8.97351 29.3807 10.6398 30.8091 12.7776C32.2376 14.9154 33 17.4288 33 20C33.0034 21.7082 32.6695 23.4002 32.0174 24.9789C31.3653 26.5577 30.4079 27.9922 29.2 29.2C27.9922 30.4079 26.5577 31.3653 24.9789 32.0174C23.4002 32.6695 21.7082 33.0034 20 33ZM25 14.7L19.2 21.7L15.2 18.8C14.3 18.1 13.1 18.3 12.4 19.2C11.7 20.1 11.9 21.3 12.8 22C14 22.9 15.3 23.8 16.5 24.7C17.4 25.3 18.2 26.2 19.3 26.3C19.6 26.3 20 26.3 20.3 26.1L20.9 25.5L25.4 20.1C26.2 19.1 27 18.2 27.8 17.2C28.4 16.4 28.6 15.4 27.9 14.6L27.6 14.3C26.9 13.8 25.7 13.9 25 14.7Z" fill="#389E66"/>
</svg>
